<svg width="10" height="10" viewBox="0 0 10 10" fill="none" xmlns="http://www.w3.org/2000/svg">
<path id="Union" d="M9.47145 1.47145C9.7318 1.2111 9.7318 0.788986 9.47145 0.528636C9.2111 0.268287 8.78899 0.268287 8.52864 0.528636L5.00004 4.05723L1.47145 0.528636C1.2111 0.268287 0.788986 0.268287 0.528636 0.528636C0.268287 0.788986 0.268287 1.2111 0.528636 1.47145L4.05723 5.00004L0.528636 8.52864C0.268287 8.78899 0.268287 9.2111 0.528636 9.47145C0.788986 9.7318 1.2111 9.7318 1.47145 9.47145L5.00004 5.94285L8.52864 9.47145C8.78899 9.7318 9.2111 9.7318 9.47145 9.47145C9.7318 9.2111 9.7318 8.78899 9.47145 8.52864L5.94285 5.00004L9.47145 1.47145Z" fill="currentColor"/>
</svg>
